<?xml version="1.0" encoding="UTF-8"?>
<svg id="Layer_2" data-name="Layer 2" xmlns="http://www.w3.org/2000/svg" viewBox="0 0 891.33 891.32">
  <defs>
    <style>
      .cls-1 {
        fill: #fff;
      }

      .cls-1, .cls-2, .cls-3 {
        stroke-width: 0px;
      }

      .cls-2 {
        fill: #ff0001;
      }

      .cls-3 {
        fill: #070606;
      }
    </style>
  </defs>
  <g id="Layer_1-2" data-name="Layer 1">
    <g>
      <rect class="cls-1" width="891.33" height="891.32" rx="55.17" ry="55.17"/>
      <g>
        <g>
          <polygon class="cls-2" points="440.63 399.18 366.64 325.19 455.27 325.19 481.11 299.35 340.8 299.35 340.79 299.34 376.39 263.75 516.71 263.75 542.56 237.91 365.69 237.91 304.25 299.34 422.36 417.46 440.63 399.18"/>
          <polygon class="cls-2" points="587.08 325.18 587.02 325.18 587.03 325.18 491.99 325.18 466.14 351.02 524.7 351.02 440.31 435.4 458.59 453.68 587.08 325.18"/>
        </g>
        <g>
          <g>
            <path class="cls-2" d="m282.02,504.36v65.79c0,3.72-.11,7.45-.33,11.17-.22,3.72-.74,7.35-1.57,10.86-.83,3.52-2.13,6.91-3.89,10.16-1.77,3.26-4.2,6.28-7.29,9.08-2.65,2.38-5.6,4.4-8.86,6.05-3.26,1.66-6.68,3-10.27,4.03-1.79.52-8.44,2.15-15.08,2.15s-13.29-1.63-15.08-2.15c-3.59-1.03-7.01-2.38-10.27-4.03-3.26-1.65-6.21-3.67-8.86-6.05-3.09-2.79-5.52-5.82-7.29-9.08-1.77-3.26-3.06-6.65-3.89-10.16-.83-3.52-1.35-7.14-1.57-10.86-.22-3.72-.33-7.45-.33-11.17v-65.79h32.46v61.6c0,3.83.17,7.63.5,11.4.33,3.78,1.22,7.19,2.65,10.24.72,1.53,3.78,6.14,11.68,6.14s10.97-4.61,11.69-6.14c1.43-3.05,2.32-6.46,2.65-10.24.33-3.78.5-7.58.5-11.4v-61.6h32.45Z"/>
            <path class="cls-2" d="m353.65,621.36h-32.46v-91.24h-31.06v-25.76h94.57v25.76h-31.06v91.24Z"/>
            <g>
              <polygon class="cls-2" points="117.22 530.12 179.34 530.12 179.34 504.36 84.77 504.36 84.77 541.55 117.22 541.55 117.22 530.12"/>
              <polygon class="cls-2" points="84.77 621.36 117.22 621.36 117.22 575.43 163.11 575.43 163.11 549.67 84.77 549.67 84.77 621.36"/>
            </g>
            <g>
              <polygon class="cls-2" points="487.4 530.12 487.4 504.36 392.82 504.36 392.82 541.55 425.28 541.55 425.28 530.12 487.4 530.12"/>
              <polygon class="cls-2" points="392.82 621.36 487.4 621.36 487.4 595.6 425.28 595.6 425.28 575.43 471.48 575.43 471.17 549.67 392.82 549.67 392.82 621.36"/>
            </g>
          </g>
          <g>
            <path class="cls-3" d="m699.26,541.44v54.69c0,2.02.32,3.88.98,5.59.65,1.71,1.76,3.13,3.32,4.27,1.56,1.14,3.91,1.71,7.04,1.71s5.44-.52,6.94-1.55c1.5-1.04,2.54-2.38,3.13-4.03.59-1.66.88-3.44.88-5.35v-55.31h18.37v53.03c0,4.04-.42,7.72-1.27,11.04-.85,3.32-2.35,6.14-4.5,8.48s-5.08,4.12-8.8,5.37c-3.71,1.24-8.37,1.87-13.98,1.87-6.65,0-11.99-.73-16.03-2.18-4.04-1.45-7.13-3.47-9.28-6.07-2.15-2.59-3.55-5.73-4.2-9.41-.65-3.68-.98-7.75-.98-12.21v-49.92h18.37Z"/>
            <path class="cls-3" d="m672.43,568.23c-.55-4.69-1.84-9.03-3.86-13.01-2.02-3.98-4.97-7.27-8.83-9.88-3.86-2.6-9.1-3.91-15.73-3.91-.09,0-.18,0-.27,0-.09,0-.18,0-.27,0-6.62,0-11.86,1.3-15.73,3.91-3.86,2.6-6.81,5.89-8.83,9.88-2.02,3.98-3.31,8.32-3.86,13.01-.55,4.7-.83,9.14-.83,13.32s.28,8.45.83,13.09c.55,4.65,1.84,8.93,3.86,12.86,2.02,3.93,4.97,7.2,8.83,9.8,3.86,2.6,9.1,3.91,15.73,3.91.09,0,.18,0,.27,0,.09,0,.18,0,.27,0,6.62,0,11.86-1.3,15.73-3.91,3.86-2.6,6.81-5.87,8.83-9.8,2.02-3.93,3.31-8.22,3.86-12.86.55-4.64.83-9.01.83-13.09s-.28-8.62-.83-13.32Zm-17.66,28.54c-.67,2.94-1.81,5.53-3.4,7.76-1.59,2.24-4.05,3.35-7.36,3.35-.09,0-.18,0-.27-.01-.09,0-.18.01-.27.01-3.31,0-5.76-1.11-7.36-3.35-1.59-2.23-2.73-4.82-3.4-7.76-.34-1.47-1.2-8.46-1.2-15.45s.86-13.98,1.2-15.45c.67-2.94,1.81-5.53,3.4-7.77,1.59-2.23,4.05-3.35,7.36-3.35.09,0,.18,0,.27.01.09,0,.18-.01.27-.01,3.31,0,5.76,1.12,7.36,3.35,1.59,2.23,2.73,4.82,3.4,7.77.34,1.47,1.2,8.46,1.2,15.45s-.86,13.98-1.2,15.45Z"/>
            <path class="cls-3" d="m806.56,580.94c0-4.25-.28-8.76-.83-13.53-.55-4.77-1.84-9.18-3.86-13.22-2.02-4.04-4.97-7.39-8.83-10.03-3.23-2.21-6.9-2.72-12.07-2.72-9.99,0-14.46,9.75-16.14,12.28v-12.28h-17.29v110.73h17.29v-43.23c1.68,2.53,6.16,12.29,16.14,12.28,5.17,0,8.84-.51,12.07-2.72,3.86-2.64,6.81-5.99,8.83-10.03,2.02-4.04,3.31-8.45,3.86-13.22.55-4.77.83-9.28.83-13.53,0-.13,0-.26,0-.39,0-.13,0-.26,0-.39Zm-18.49,16.56c-.67,3.07-1.81,5.76-3.4,8.09-1.59,2.33-4.05,3.49-7.36,3.49-.09,0-.18-.01-.27-.01-.09,0-.18.01-.27.01-3.31,0-5.76-1.16-7.36-3.49-1.59-2.33-2.73-5.02-3.4-8.09-.34-1.53-1.2-8.81-1.2-16.1s.86-14.56,1.2-16.1c.67-3.07,1.81-5.76,3.4-8.09,1.59-2.33,4.05-3.49,7.36-3.49.09,0,.18.01.27.01.09,0,.18-.01.27-.01,3.31,0,5.76,1.16,7.36,3.49,1.59,2.33,2.73,5.02,3.4,8.09.34,1.53,1.2,8.82,1.2,16.1s-.86,14.56-1.2,16.1Z"/>
            <path class="cls-3" d="m537.25,541.44v12.33c-1.68-2.53-6.16-12.29-16.14-12.28-5.17,0-8.84.51-12.07,2.72-3.86,2.64-6.81,5.99-8.83,10.03-2.02,4.04-3.31,8.45-3.86,13.22-.55,4.77-.83,9.28-.83,13.53,0,.13,0,.26,0,.39,0,.13,0,.26,0,.39,0,4.25.28,8.76.83,13.53.55,4.77,1.84,9.18,3.86,13.22,2.02,4.04,4.97,7.39,8.83,10.03,3.23,2.21,6.9,2.72,12.07,2.72,9.98,0,14.46-9.75,16.14-12.28v20.31c0,1.97-.31,3.78-.92,5.44-.62,1.66-1.63,3.01-3.04,4.04-1.41,1.04-3.59,1.56-6.53,1.56-2.21,0-4.02-.37-5.43-1.09-1.41-.73-2.55-1.63-3.4-2.72-.86-1.09-1.47-2.33-1.84-3.73-.37-1.4-.49-2.83-.37-4.28h-16.74v2.18c0,7.36,2.45,12.99,7.36,16.87,4.9,3.89,11.59,5.83,20.05,5.83,4.54,0,8.58-.39,12.14-1.17,3.55-.78,6.53-2.36,8.92-4.74,2.39-2.39,4.2-5.7,5.43-9.95,1.22-4.25,1.84-9.9,1.84-16.95v-79.16h-17.47Zm-1.19,56.12c-.67,3.07-1.81,5.76-3.4,8.09-1.59,2.33-4.05,3.49-7.36,3.49-.09,0-.18-.01-.27-.01-.09,0-.18.01-.27.01-3.31,0-5.76-1.16-7.36-3.49-1.59-2.33-2.73-5.02-3.4-8.09-.34-1.53-1.2-8.81-1.2-16.1s.86-14.56,1.2-16.1c.67-3.07,1.81-5.76,3.4-8.09,1.59-2.33,4.05-3.49,7.36-3.49.09,0,.18.01.27.01.09,0,.18-.01.27-.01,3.31,0,5.76,1.16,7.36,3.49,1.59,2.33,2.73,5.02,3.4,8.09.33,1.49,1.15,8.43,1.19,15.51v1.17c-.04,7.08-.87,14.02-1.19,15.51Z"/>
            <path class="cls-3" d="m603.46,541.87c-1.16-.29-2.47-.44-3.93-.44-2.22,0-4.33.58-6.34,1.75-2.01,1.17-3.86,2.86-5.56,5.08-1.7,2.22-3.2,4.95-4.5,8.19-1.3,3.24-2.37,6.9-3.22,10.98h-.28v-25.95h-17.29v79.72h17.29v-20.56c0-3.13.13-6.45.39-9.94.26-3.5.68-6.95,1.28-10.38.59-3.42,1.37-6.72,2.34-9.89.97-3.17,2.15-5.95,3.54-8.36,1.39-2.4,3.01-4.32,4.85-5.74,1.84-1.42,3.97-2.13,6.37-2.13,3.35,0,6.09,1.2,8.21,3.61v-14.64c-.95-.58-2-1.02-3.15-1.31Z"/>
          </g>
        </g>
      </g>
    </g>
  </g>
</svg>